Coordinates
version=1
nRows=19
nColumns=24
inDegrees=yes

Units are S.I. units (second, meters, Newtons, ...)
Angles are in degrees.

endheader
time	pelvis_tilt	pelvis_list	pelvis_rotation	pelvis_tx	pelvis_ty	pelvis_tz	hip_flexion_r	hip_adduction_r	hip_rotation_r	knee_angle_r	ankle_angle_r	subtalar_angle_r	mtp_angle_r	hip_flexion_l	hip_adduction_l	hip_rotation_l	knee_angle_l	ankle_angle_l	subtalar_angle_l	mtp_angle_l	lumbar_extension	lumbar_bending	lumbar_rotation
      1.42900000	     -2.82470915	     -1.58869861	     -9.66453747	      0.85024825	      0.97424775	      0.33823214	    -21.25134001	      4.58362503	      7.05056013	     -6.38044436	     16.30409688	     -1.02948544	     -0.03697727	     33.49572241	     -4.92620025	    -10.97254866	      0.90682050	     12.62309838	     -5.42828009	     -0.25675348	     -3.14631922	     -1.39980195	      7.06165286
      1.43316667	     -2.90558244	     -1.49035213	     -9.85155438	      0.85661300	      0.97309872	      0.33820769	    -21.41917132	      4.34600289	      6.98961914	     -6.56602250	     16.16890125	     -0.79252269	      0.20233327	     33.67321351	     -4.90552761	    -11.02718143	      0.17998220	     13.19584785	     -5.33268123	     -0.12986264	     -2.98638438	     -1.49809563	      7.47491968
      1.43733333	     -2.94880880	     -1.37772278	    -10.00338040	      0.86309061	      0.97199381	      0.33815575	    -21.65566407	      4.09947091	      6.94981633	     -6.69387951	     15.98056339	     -0.63953364	      0.36853979	     33.76867145	     -4.83508122	    -10.91702743	     -0.48396501	     13.70062368	     -5.41046975	     -0.03315991	     -2.85496232	     -1.64793651	      7.63143023
      1.44150000	     -3.00529493	     -1.24323271	    -10.22802483	      0.86961938	      0.97092926	      0.33819126	    -21.83016003	      3.80392667	      6.92447353	     -6.91348317	     15.84507144	     -0.36776755	      0.98444076	     33.85459294	     -4.78617869	    -10.98955949	     -1.14733618	     14.21332916	     -5.37111940	      0.30158744	     -2.67350859	     -1.81592306	      7.95565535
      1.44566667	     -3.04683414	     -1.13119037	    -10.38149849	      0.87619509	      0.96986825	      0.33811449	    -22.03551637	      3.55497433	      6.85793357	     -7.10283573	     15.56195296	     -0.28674504	      1.05677442	     33.90733850	     -4.70216176	    -10.82308410	     -1.77403883	     14.61934654	     -5.58276134	      0.35621820	     -2.54555608	     -1.93868104	      8.02446093
      1.44983333	     -3.06682365	     -0.99188604	    -10.54567129	      0.88285106	      0.96886237	      0.33801699	    -22.23052292	      3.25751881	      6.67376899	     -7.34474108	     15.30916343	      0.07374487	      3.93116682	     33.93528812	     -4.59654252	    -10.81081060	     -2.41736897	     14.97154657	     -5.60734542	      1.98167474	     -2.42566435	     -2.08843227	      8.27474594
      1.45400000	     -3.13545518	     -0.85977465	    -10.70596589	      0.88954394	      0.96780337	      0.33795407	    -22.38454068	      2.99262603	      6.65485524	     -7.57767701	     15.02495225	      0.10797583	      3.95314365	     33.98774545	     -4.49169272	    -10.63315844	     -3.02063528	     15.30916269	     -5.83992478	      2.00601239	     -2.22784380	     -2.25105927	      8.39858683
      1.45816667	     -3.21782289	     -0.72165118	    -10.85221284	      0.89628740	      0.96674882	      0.33784323	    -22.50301716	      2.72359482	      6.57437592	     -7.84755938	     14.74069463	      0.26075143	      4.06435479	     34.04844495	     -4.37008583	    -10.45178430	     -3.61215942	     15.50929551	     -6.09212740	      2.08098298	     -2.01372636	     -2.40449696	      8.74629578
      1.46233333	     -3.25398626	     -0.56614311	    -10.99672622	      0.90310733	      0.96578850	      0.33770911	    -22.66180494	      2.42654120	      6.49097675	     -8.12824900	     14.41784955	      0.38472456	      4.12303917	     34.04436768	     -4.21767006	    -10.30278845	     -4.17179066	     15.69810823	     -6.29265765	      2.13007790	     -1.83420075	     -2.57855014	      8.84773952
      1.46650000	     -3.31758765	     -0.39635380	    -11.11137598	      0.90995253	      0.96480637	      0.33752334	    -22.76192800	      2.12809086	      6.31957402	     -8.46143067	     14.12911475	      0.63817888	      4.30890454	     34.06852306	     -4.03248697	    -10.08315818	     -4.71916252	     15.73830173	     -6.60779064	      2.25665764	     -1.63970477	     -2.79208425	      9.13828424
      1.47066667	     -3.36166623	     -0.21444812	    -11.23289951	      0.91683948	      0.96389295	      0.33732429	    -22.85326086	      1.80908887	      6.12284736	     -8.84757785	     13.83398568	      0.89240578	      4.66255687	     34.05329267	     -3.82677175	     -9.84601968	     -5.21735167	     15.66791384	     -7.04233773	      2.49406677	     -1.44955801	     -2.99237852	      9.36998557
      1.47483333	     -3.37895256	     -0.02270839	    -11.33458129	      0.92378428	      0.96305459	      0.33709417	    -22.98850577	      1.48557170	      5.98811339	     -9.18229725	     13.33190124	      0.93634404	      7.54421462	     34.00193985	     -3.59184848	     -9.59945864	     -5.68312262	     15.45774657	     -7.53561688	      4.42261279	     -1.29442347	     -3.20349026	      9.28287215
      1.47900000	     -3.44215462	      0.17203325	    -11.41869336	      0.93074155	      0.96217143	      0.33681417	    -23.02497279	      1.17144951	      5.76302108	     -9.62869148	     12.99272386	      1.17652691	      7.64478191	     34.03672998	     -3.36122597	     -9.43039290	     -6.22268882	     15.32622465	     -7.76722366	      4.47729022	     -1.05694945	     -3.41094193	      9.61286321
      1.48316667	     -3.48009898	      0.39453189	    -11.47388964	      0.93774645	      0.96136184	      0.33648296	    -23.07795090	      0.83485534	      5.50937470	    -10.08251854	     12.60193370	      1.38671971	      7.83194746	     34.02216506	     -3.06612792	     -9.12107881	     -6.68228873	     14.96337184	     -8.30388719	      4.59220365	     -0.85633087	     -3.67675314	      9.74172372
      1.48733333	     -3.51799794	      0.62108151	    -11.51131731	      0.94477421	      0.96059375	      0.33610260	    -23.11225933	      0.50072439	      5.24367577	    -10.56613941	     12.15733608	      1.55923949	      8.09944735	     34.02860284	     -2.75907928	     -8.82733820	     -7.17271706	     14.56526832	     -8.82827542	      4.75698801	     -0.65439823	     -3.92253500	      9.83760217
      1.49150000	     -3.54718702	      0.86539484	    -11.52474125	      0.95181769	      0.95988238	      0.33567439	    -23.13470994	      0.15546368	      4.94502125	    -11.08142226	     11.68047785	      1.73978449	      8.44798554	     34.03065942	     -2.41540745	     -8.49747128	     -7.64813426	     14.05802790	     -9.41788228	      4.97014368	     -0.46313343	     -4.20398523	      9.91356797
      1.49566667	     -3.53685695	      1.11097143	    -11.50646918	      0.95887446	      0.95928729	      0.33520095	    -23.21342848	     -0.17815861	      4.71009877	    -11.54772471	     10.97657958	      1.68821661	     11.12814052	     34.00642132	     -2.04817181	     -8.16965025	     -8.13652485	     13.39318904	    -10.03321833	      6.49387432	     -0.34266015	     -4.49006193	      9.83809413
      1.49983333	     -3.61232120	      1.37755350	    -11.47479995	      0.96594830	      0.95858035	      0.33463900	    -23.11217944	     -0.53200646	      4.25798832	    -12.20184674	     10.53623899	      2.03927781	     11.26301472	     34.12371390	     -1.67567675	     -7.88632802	     -8.72481954	     12.89105678	    -10.47786386	      6.54249669	     -0.07197129	     -4.78777999	     10.00091136
      1.50400000	     -3.61126188	      1.66589400	    -11.40674052	      0.97303863	      0.95804817	      0.33402918	    -23.10288399	     -0.90113014	      3.83805489	    -12.81751461	      9.94563956	      2.20842595	     11.49994833	     34.15348700	     -1.23718014	     -7.50405990	     -9.27454547	     12.16680008	    -11.15596976	      6.64213033	      0.08232751	     -5.13051870	      9.99017759
